<?xml version="1.0" encoding="UTF-8" standalone="no"?>
<!-- Created with Inkscape (http://www.inkscape.org/) -->

<svg
   width="586.21429"
   height="115.2178"
   viewBox="0 0 18.319197 3.6005561"
   version="1.1"
   id="svg5"
   inkscape:export-filename="..\PNG\info_discord.png"
   inkscape:export-xdpi="96"
   inkscape:export-ydpi="96"
   xml:space="preserve"
   inkscape:version="1.2.2 (732a01da63, 2022-12-09)"
   sodipodi:docname="info_github.svg"
   xmlns:inkscape="http://www.inkscape.org/namespaces/inkscape"
   xmlns:sodipodi="http://sodipodi.sourceforge.net/DTD/sodipodi-0.dtd"
   xmlns="http://www.w3.org/2000/svg"
   xmlns:svg="http://www.w3.org/2000/svg"><sodipodi:namedview
     id="namedview7"
     pagecolor="#505050"
     bordercolor="#ffffff"
     borderopacity="1"
     inkscape:showpageshadow="0"
     inkscape:pageopacity="0"
     inkscape:pagecheckerboard="1"
     inkscape:deskcolor="#505050"
     inkscape:document-units="mm"
     showgrid="false"
     showguides="true"
     inkscape:zoom="3.5705387"
     inkscape:cx="85.701354"
     inkscape:cy="37.529351"
     inkscape:window-width="1920"
     inkscape:window-height="1017"
     inkscape:window-x="-8"
     inkscape:window-y="195"
     inkscape:window-maximized="1"
     inkscape:current-layer="layer1"><inkscape:grid
       type="xygrid"
       id="grid520"
       originx="0"
       originy="0" /></sodipodi:namedview><defs
     id="defs2" /><g
     inkscape:label="Layer 1"
     inkscape:groupmode="layer"
     id="layer1"
     transform="translate(-0.83343267,-0.54341188)"><rect
       style="display:none;fill:#1a1a1a;stroke:none;stroke-width:0.035315"
       id="rect170"
       width="6.2058859"
       height="4.7313323"
       x="0"
       y="-0.021976201" /><path
       d="M 4.7495111,0.85971839 C 4.4514879,0.72028088 4.1328275,0.61894378 3.7996768,0.56124106 3.758761,0.63521168 3.7109618,0.73470794 3.6780054,0.81385609 c -0.3541478,-0.0532577 -0.7050389,-0.0532577 -1.0526737,0 C 2.5923813,0.73470862 2.5434953,0.63521381 2.5022143,0.56124106 2.1687041,0.61894378 1.8496772,0.72065313 1.5516545,0.86045719 0.95053951,1.7688208 0.78758674,2.6546226 0.86906313,3.527846 1.2677543,3.8255787 1.6541344,4.0064426 2.0339936,4.1247947 2.1277828,3.9957137 2.2114302,3.8584976 2.2834905,3.7138848 2.1462491,3.6617361 2.0148015,3.5973819 1.8905987,3.5226711 c 0.032951,-0.024411 0.065176,-0.049934 0.096319,-0.076195 0.7575477,0.3543245 1.5806423,0.3543245 2.3291395,0 0.031505,0.026261 0.063728,0.051783 0.09632,0.076194 C 4.2878094,3.5977479 4.1560019,3.662102 4.0187605,3.7142569 4.0908206,3.8584971 4.1741086,3.9960857 4.2682575,4.1251603 4.6484828,4.0068087 5.0352212,3.8259511 5.4339126,3.527846 5.5295133,2.5155573 5.2706001,1.6378903 4.7495111,0.85971839 Z M 2.3866958,2.9908214 c -0.2274079,0 -0.4139012,-0.212299 -0.4139012,-0.4708274 0,-0.2585283 0.182511,-0.4711936 0.4139012,-0.4711936 0.2313967,0 0.4178836,0.212293 0.4139014,0.4711936 3.684e-4,0.2585284 -0.1825047,0.4708274 -0.4139014,0.4708274 z m 1.529585,0 c -0.227408,0 -0.4139013,-0.212299 -0.4139013,-0.4708274 0,-0.2585283 0.1825048,-0.4711936 0.4139013,-0.4711936 0.2313905,0 0.4178836,0.212293 0.4139015,0.4711936 0,0.2585284 -0.182511,0.4708274 -0.4139015,0.4708274 z"
       fill="#5865f2"
       fill-rule="nonzero"
       id="path8334"
       style="stroke:#000000;stroke-width:0.0322179;stroke-dasharray:none" /><text
       xml:space="preserve"
       style="font-style:normal;font-variant:normal;font-weight:normal;font-stretch:normal;font-size:0.75px;font-family:Arial;-inkscape-font-specification:'Arial, Normal';font-variant-ligatures:normal;font-variant-caps:normal;font-variant-numeric:normal;font-variant-east-asian:normal;white-space:pre;inline-size:13.1301;fill:#ffffff;stroke:#000000;stroke-width:0.015625;stroke-dasharray:none"
       x="6.7088399"
       y="1.4321654"
       id="text173"
       transform="translate(-0.53096404,-0.29617899)"><tspan
         x="6.7088399"
         y="1.4321654"
         id="tspan1207">Join the server  for updates, teasers, </tspan><tspan
         x="6.7088399"
         y="2.3696654"
         id="tspan1209">and bug reporting. I am more active on </tspan><tspan
         x="6.7088399"
         y="3.3071652"
         id="tspan1211">here and aim to have everything in one </tspan><tspan
         x="6.7088399"
         y="4.2446652"
         id="tspan1213">place.</tspan></text></g></svg>
