<?xml version="1.0" encoding="UTF-8" standalone="no"?>
<!-- Created with Inkscape (http://www.inkscape.org/) -->

<svg
   width="620"
   height="151.40262"
   viewBox="0 0 19.375 4.7313318"
   version="1.1"
   id="svg5"
   inkscape:export-filename="..\SVG\info_donation.svg"
   inkscape:export-xdpi="96"
   inkscape:export-ydpi="96"
   xml:space="preserve"
   inkscape:version="1.2.2 (732a01da63, 2022-12-09)"
   sodipodi:docname="info_discord.svg"
   xmlns:inkscape="http://www.inkscape.org/namespaces/inkscape"
   xmlns:sodipodi="http://sodipodi.sourceforge.net/DTD/sodipodi-0.dtd"
   xmlns="http://www.w3.org/2000/svg"
   xmlns:svg="http://www.w3.org/2000/svg"><sodipodi:namedview
     id="namedview7"
     pagecolor="#505050"
     bordercolor="#ffffff"
     borderopacity="1"
     inkscape:showpageshadow="0"
     inkscape:pageopacity="0"
     inkscape:pagecheckerboard="1"
     inkscape:deskcolor="#505050"
     inkscape:document-units="mm"
     showgrid="false"
     showguides="true"
     inkscape:zoom="3.5705387"
     inkscape:cx="317.31906"
     inkscape:cy="37.529351"
     inkscape:window-width="3440"
     inkscape:window-height="1377"
     inkscape:window-x="1912"
     inkscape:window-y="-8"
     inkscape:window-maximized="1"
     inkscape:current-layer="layer1"><inkscape:grid
       type="xygrid"
       id="grid520"
       originx="0"
       originy="0" /></sodipodi:namedview><defs
     id="defs2" /><g
     inkscape:label="Layer 1"
     inkscape:groupmode="layer"
     id="layer1"
     transform="translate(0,0.0219762)"><text
       xml:space="preserve"
       style="font-style:normal;font-variant:normal;font-weight:normal;font-stretch:normal;font-size:0.75px;font-family:Arial;-inkscape-font-specification:'Arial, Normal';font-variant-ligatures:normal;font-variant-caps:normal;font-variant-numeric:normal;font-variant-east-asian:normal;white-space:pre;inline-size:13.1301;fill:#ffffff;stroke:#000000;stroke-width:0.015625;stroke-dasharray:none"
       x="6.7088399"
       y="1.4321654"
       id="text173"
       transform="translate(-0.46086229,-0.76932352)"><tspan
         x="6.7088399"
         y="1.4321654"
         id="tspan1256">A direct download is provided here. If </tspan><tspan
         x="6.7088399"
         y="2.3696654"
         id="tspan1258">you wish to help out with development, </tspan><tspan
         x="6.7088399"
         y="3.3071652"
         id="tspan1260">join the discord and let us know! The </tspan><tspan
         x="6.7088399"
         y="4.2446652"
         id="tspan1262">aim is for this to become a community </tspan><tspan
         x="6.7088399"
         y="5.1821652"
         id="tspan1264">driven project.</tspan></text><path
       style="fill:#ffffff;stroke:#000000;stroke-width:0.03125"
       d="m 0.015625,0.015625 h 1.34375 v 0.09375 h -1.25 v 0.46875 h -0.09375 z"
       id="path496"
       sodipodi:nodetypes="ccccccc" /><path
       style="fill:#ffffff;stroke:#000000;stroke-width:0.03125"
       d="m 19.359375,4.671875 h -1.34375 v -0.09375 h 1.25 v -0.46875 h 0.09375 z"
       id="path496-2"
       sodipodi:nodetypes="ccccccc" /><path
       d="m 3.1514858,-0.00431807 c -1.3293013,0 -2.40742772,1.07792607 -2.40742772,2.40742777 0,1.0636818 0.68972812,1.9660661 1.64648022,2.2844487 0.1201731,0.022276 0.1590901,-0.052386 0.1590901,-0.1157559 V 4.1236232 C 1.8799615,4.2692694 1.7405316,3.8395467 1.7405316,3.8395467 1.6309905,3.5612867 1.4731081,3.4872598 1.4731081,3.4872598 1.2546356,3.3378008 1.489736,3.34101 1.489736,3.34101 1.7314802,3.3578935 1.8586758,3.5891741 1.8586758,3.5891741 2.0733351,3.9571062 2.421815,3.8507813 2.5592375,3.7891896 2.5806791,3.6337088 2.643093,3.5273835 2.7121122,3.4673969 2.1774641,3.4062154 1.6153286,3.1997742 1.6153286,2.2775252 c 0,-0.263013 0.094088,-0.4776722 0.2479651,-0.6461934 -0.024844,-0.060796 -0.107333,-0.3057433 0.023497,-0.63716578 0,0 0.2022239,-0.0646023 0.6622428,0.24675808 0.1919973,-0.053348 0.3978291,-0.080049 0.6024604,-0.08105 0.2046314,0.001 0.4106687,0.02767 0.6030639,0.08105 C 4.2141765,0.92956368 4.415998,0.99416623 4.415998,0.99416623 4.547,1.3257876 4.464531,1.5707482 4.439687,1.6313319 c 0.1544728,0.16852 0.2477661,0.3833847 0.2477661,0.6461935 0,0.9246532 -0.5631391,1.1282811 -1.0991918,1.1878652 0.086263,0.07463 0.1651111,0.2210791 0.1651111,0.4457724 v 0.6606379 c 0,0.064005 0.038519,0.1392332 0.1606944,0.1155559 0.9559524,-0.3187819 1.6448781,-1.2209672 1.6448781,-2.2842479 0,-1.3295015 -1.0779255,-2.40742762 -2.407428,-2.40742762 z"
       id="path531"
       style="stroke:#ffffff;stroke-width:0.035315;stroke-dasharray:none" /></g></svg>
