<?xml version="1.0" encoding="UTF-8" standalone="no"?>
<!-- Created with Inkscape (http://www.inkscape.org/) -->

<svg
   width="620"
   height="151.54198"
   viewBox="0 0 19.375 4.7356868"
   version="1.1"
   id="svg5"
   xml:space="preserve"
   xmlns="http://www.w3.org/2000/svg"
   xmlns:svg="http://www.w3.org/2000/svg"><defs
     id="defs2" /><g
     id="layer1"
     transform="translate(0,0.02409345)"><text
       xml:space="preserve"
       style="font-style:normal;font-variant:normal;font-weight:normal;font-stretch:normal;font-size:0.75px;font-family:Arial;-inkscape-font-specification:'Arial, Normal';font-variant-ligatures:normal;font-variant-caps:normal;font-variant-numeric:normal;font-variant-east-asian:normal;white-space:pre;inline-size:13.1301;fill:#ffffff;stroke:#000000;stroke-width:0.015625;stroke-dasharray:none"
       x="6.7088399"
       y="1.4321654"
       id="text173"
       transform="translate(-0.33833176,-0.29617899)"><tspan
         x="6.7088399"
         y="1.4321654"
         id="tspan305">Join the server  for updates, teasers, </tspan><tspan
         x="6.7088399"
         y="2.3696654"
         id="tspan307">and bug reporting. I am more active on </tspan><tspan
         x="6.7088399"
         y="3.3071652"
         id="tspan309">here and aim to have everything in one </tspan><tspan
         x="6.7088399"
         y="4.2446652"
         id="tspan311">place.</tspan></text><path
       d="M 5.2533084,0.39193364 C 4.8613287,0.20853625 4.4422057,0.075251 4.0040241,-6.43385e-4 3.9502094,0.09664778 3.8873399,0.22751155 3.8439939,0.33161242 c -0.4657984,-0.0700479 -0.9273134,-0.0700479 -1.3845455,0 C 2.4161098,0.22751248 2.3518119,0.09665038 2.2975164,-6.43385e-4 1.8588618,0.075251 1.4392569,0.20902584 1.047278,0.39290524 0.25665217,1.5876445 0.04232602,2.752709 0.1494891,3.9012297 0.67387385,4.2928273 1.1820662,4.5307112 1.6816818,4.6863757 1.8050396,4.5165999 1.9150581,4.3361242 2.0098365,4.1459201 1.8293276,4.0773307 1.6564391,3.9926878 1.4930795,3.8944232 c 0.043339,-0.032108 0.085724,-0.065677 0.1266856,-0.1002158 0.9963763,0.4660308 2.0789642,0.4660308 3.0634368,0 0.041438,0.034541 0.083819,0.068109 0.1266857,0.1002153 C 4.6460481,3.9931691 4.4726862,4.0778119 4.2921773,4.1464094 4.3869555,4.3361236 4.4965013,4.5170891 4.6203322,4.6868566 5.1204293,4.5311928 5.629093,4.2933171 6.1534781,3.9012297 6.2792183,2.5698012 5.9386787,1.4154362 5.2533084,0.39193364 Z M 2.1455789,3.1948997 c -0.2991018,0 -0.5443899,-0.2792296 -0.5443899,-0.619263 0,-0.3400333 0.2400503,-0.6197446 0.5443899,-0.6197446 0.3043482,0 0.5496279,0.2792216 0.5443903,0.6197446 4.845e-4,0.3400334 -0.2400421,0.619263 -0.5443903,0.619263 z m 2.0118104,0 c -0.299102,0 -0.5443901,-0.2792296 -0.5443901,-0.619263 0,-0.3400333 0.2400423,-0.6197446 0.5443901,-0.6197446 0.3043399,0 0.5496279,0.2792216 0.5443903,0.6197446 0,0.3400334 -0.2400504,0.619263 -0.5443903,0.619263 z"
       fill="#5865f2"
       fill-rule="nonzero"
       id="path8334"
       style="stroke:#000000;stroke-width:0.042375;stroke-dasharray:none" /><path
       style="fill:#ffffff;stroke:#000000;stroke-width:0.03125"
       d="m 0.015625,0.015625 h 1.34375 v 0.09375 h -1.25 v 0.46875 h -0.09375 z"
       id="path496" /><path
       style="fill:#ffffff;stroke:#000000;stroke-width:0.03125"
       d="m 19.359375,4.671875 h -1.34375 v -0.09375 h 1.25 v -0.46875 h 0.09375 z"
       id="path496-2" /></g></svg>
